# Blender v2.91.0 OBJ File: ''
# www.blender.org
mtllib chestofdrawers.mtl
o chestofdrawers
v 0.500000 1.000000 -0.250000
v 0.500000 1.000000 0.250000
v 0.500000 0.000000 -0.250000
v 0.500000 -0.000000 0.250000
v 0.460000 0.720000 0.250000
v 0.460000 0.760000 0.250000
v -0.460000 0.720000 0.250000
v -0.460000 0.760000 0.250000
v -0.500000 1.000000 0.250000
v -0.460000 0.960000 0.250000
v 0.460000 0.960000 0.250000
v 0.460000 0.520000 0.250000
v 0.460000 0.480000 0.250000
v 0.460000 0.280000 0.250000
v -0.460000 0.480000 0.250000
v -0.460000 0.520000 0.250000
v -0.500000 -0.000000 0.250000
v 0.460000 0.040000 0.250000
v -0.460000 0.040000 0.250000
v -0.460000 0.240000 0.250000
v -0.460000 0.280000 0.250000
v 0.460000 0.240000 0.250000
v -0.500000 1.000000 -0.250000
v 0.460000 0.240000 0.210000
v 0.460000 0.040262 -0.210000
v 0.460000 0.040000 -0.250000
v 0.460000 0.040262 -0.250000
v 0.460000 0.280000 0.210000
v 0.460000 0.480000 0.210000
v 0.460000 0.520000 0.210000
v 0.460000 0.720000 0.210000
v 0.460000 0.960000 -0.210000
v 0.460000 0.760000 0.210000
v -0.460000 0.960000 -0.210000
v -0.460000 0.760000 0.210000
v -0.460000 0.720000 0.210000
v -0.460000 0.520000 0.210000
v -0.460000 0.480000 0.210000
v -0.500000 0.000000 -0.250000
v -0.460000 0.240000 0.210000
v -0.460000 0.040262 -0.210000
v -0.460000 0.280000 0.210000
v -0.460000 0.040000 -0.250000
v -0.460000 0.040262 -0.250000
vt -0.000000 0.000000
vt -5.000000 0.000000
vt -0.000000 -10.000000
vt -5.000000 -10.000000
vt -2.000000 9.600000
vt -2.400000 9.600000
vt -2.000000 0.400000
vt -2.400000 0.400000
vt -4.800000 -0.000000
vt -4.400000 0.400000
vt -4.400000 9.600000
vt -4.800000 10.000000
vt 0.000000 9.600000
vt 5.200000 10.000000
vt 0.400000 9.600000
vt 2.400000 9.600000
vt 0.400000 0.400000
vt 0.000000 0.400000
vt 5.200000 -0.000000
vt 4.800000 9.600000
vt 4.800000 0.400000
vt 2.800000 0.400000
vt 2.400000 0.400000
vt 2.800000 9.600000
vt 2.500000 10.200000
vt -2.500000 10.200000
vt 2.500000 0.200000
vt -2.500000 0.200000
vt 0.000000 -7.600000
vt -0.400000 -7.600000
vt 0.000000 -9.600000
vt -4.600000 -9.597383
vt -5.000000 -9.600000
vt -5.000000 -9.597383
vt -0.400000 -7.200000
vt -0.400000 -5.200000
vt -0.400000 -4.800000
vt 0.000000 -7.200000
vt 0.000000 -5.200000
vt 0.000000 -4.800000
vt -0.400000 -2.800000
vt -4.600000 -0.400000
vt 0.000000 -2.800000
vt -0.400000 -2.400000
vt 0.000000 -0.400000
vt 0.000000 -2.400000
vt 4.600000 9.600000
vt -0.000000 9.600000
vt 4.600000 0.400000
vt 0.000000 0.400000
vt 0.400000 9.600000
vt 0.000000 9.600000
vt 0.400000 0.400000
vt -0.000000 0.400000
vt 0.400000 9.600000
vt -0.000000 9.600000
vt 0.400000 0.400000
vt 0.000000 0.400000
vt 0.400000 9.600000
vt -0.000000 9.600000
vt 0.400000 0.400000
vt 0.000000 0.400000
vt 0.400000 9.600000
vt 0.000000 9.600000
vt 0.400000 0.400000
vt -0.000000 0.400000
vt 0.400000 9.600000
vt -0.000000 9.600000
vt 0.400000 0.400000
vt 0.000000 0.400000
vt 0.400000 9.600000
vt -0.000000 9.600000
vt 0.400000 0.400000
vt 0.000000 0.400000
vt -0.000000 0.000000
vt -5.000000 0.000000
vt 0.000000 -10.000000
vt -5.000000 -10.000000
vt -5.000000 -7.600000
vt -5.000000 -9.600000
vt -4.600000 -7.600000
vt -0.400000 -9.597383
vt -4.600000 -7.200000
vt -4.600000 -5.200000
vt -5.000000 -5.200000
vt -0.000000 -9.600000
vt -0.000000 -9.597383
vt -4.600000 -4.800000
vt -0.400000 -0.400000
vt -4.600000 -2.800000
vt -4.600000 -2.400000
vt -5.000000 -0.400000
vt -5.000000 -2.400000
vt -5.000000 -2.800000
vt -5.000000 -4.800000
vt -5.000000 -7.200000
vt 9.197383 9.600000
vt 0.000000 9.600000
vt 9.197383 0.400000
vt -0.000000 0.400000
vt 0.400000 9.600000
vt -0.000000 9.600000
vt 0.400000 0.400000
vt -0.000000 0.400000
vt 5.000000 9.600000
vt 0.000000 9.600000
vt 5.000000 0.400000
vt 0.000000 0.400000
vt 2.500000 10.200000
vt -2.500000 10.200000
vt 2.500000 0.200000
vt -2.500000 0.200000
vt 0.400000 9.600000
vt 0.000000 9.600000
vt 0.400000 0.400000
vt -0.000000 0.400000
vt 0.400000 9.600000
vt -0.000000 9.600000
vt 0.400000 0.400000
vt 0.000000 0.400000
vt 0.400000 9.600000
vt -0.000000 9.600000
vt 0.400000 0.400000
vt 0.000000 0.400000
vt 0.400000 0.000000
vt 10.400000 0.000000
vt 10.000000 9.597383
vt 10.400000 10.000000
vt 10.000000 9.600000
vt 0.400000 10.000000
vt 0.800000 9.600000
vt 0.800000 9.597383
vn 1.0000 0.0000 -0.0000
vn 0.0000 -0.0000 1.0000
vn 0.0000 1.0000 0.0000
vn -1.0000 0.0000 0.0000
vn -1.0000 -0.0001 0.0000
vn -0.0000 -1.0000 -0.0000
vn -0.0000 0.0000 -1.0000
vn 1.0000 0.0001 -0.0000
usemtl Cherry.001
s 1
f 1/1/1 2/2/1 3/3/1
f 3/3/1 2/2/1 4/4/1
f 5/5/2 6/6/2 7/7/2
f 7/7/2 6/6/2 8/8/2
f 7/7/2 8/8/2 9/9/2
f 9/9/2 8/8/2 10/10/2
f 9/9/2 10/10/2 11/11/2
f 6/6/2 5/5/2 2/12/2
f 2/12/2 5/5/2 12/13/2
f 2/12/2 12/13/2 4/14/2
f 4/14/2 12/13/2 13/15/2
f 4/14/2 13/15/2 14/16/2
f 13/15/2 12/13/2 15/17/2
f 15/17/2 12/13/2 16/18/2
f 15/17/2 16/18/2 17/19/2
f 17/19/2 16/18/2 9/9/2
f 9/9/2 16/18/2 7/7/2
f 18/20/2 19/21/2 17/19/2
f 17/19/2 19/21/2 20/22/2
f 17/19/2 20/22/2 21/23/2
f 21/23/2 20/22/2 14/16/2
f 14/16/2 20/22/2 22/24/2
f 14/16/2 22/24/2 4/14/2
f 4/14/2 22/24/2 18/20/2
f 4/14/2 18/20/2 17/19/2
f 9/9/2 11/11/2 2/12/2
f 2/12/2 11/11/2 6/6/2
f 21/23/2 15/17/2 17/19/2
f 2/25/3 1/26/3 9/27/3
f 9/27/3 1/26/3 23/28/3
f 22/29/4 24/30/4 18/31/4
f 18/31/4 24/30/4 25/32/5
f 18/31/4 25/32/5 26/33/4
f 26/33/4 25/32/5 27/34/4
f 24/30/4 28/35/4 25/32/5
f 25/32/5 28/35/4 29/36/4
f 25/32/5 29/36/4 30/37/4
f 28/35/4 14/38/4 29/36/4
f 29/36/4 14/38/4 13/39/4
f 12/40/4 31/41/4 30/37/4
f 30/37/4 31/41/4 32/42/4
f 30/37/4 32/42/4 25/32/5
f 12/40/4 5/43/4 31/41/4
f 31/41/4 33/44/4 32/42/4
f 32/42/4 33/44/4 11/45/4
f 11/45/4 33/44/4 6/46/4
f 32/47/6 11/48/6 34/49/6
f 34/49/6 11/48/6 10/50/6
f 6/51/3 33/52/3 8/53/3
f 8/53/3 33/52/3 35/54/3
f 33/55/7 31/56/7 35/57/7
f 35/57/7 31/56/7 36/58/7
f 31/59/6 5/60/6 36/61/6
f 36/61/6 5/60/6 7/62/6
f 12/63/3 30/64/3 16/65/3
f 16/65/3 30/64/3 37/66/3
f 30/67/7 29/68/7 37/69/7
f 37/69/7 29/68/7 38/70/7
f 29/71/6 13/72/6 38/73/6
f 38/73/6 13/72/6 15/74/6
f 9/75/4 23/76/4 17/77/4
f 17/77/4 23/76/4 39/78/4
f 20/79/1 19/80/1 40/81/1
f 40/81/1 19/80/1 41/82/8
f 40/81/1 41/82/8 42/83/1
f 42/83/1 41/82/8 38/84/1
f 42/83/1 38/84/1 15/85/1
f 19/80/1 43/86/1 41/82/8
f 41/82/8 43/86/1 44/87/1
f 38/84/1 41/82/8 37/88/1
f 37/88/1 41/82/8 34/89/1
f 37/88/1 34/89/1 36/90/1
f 36/90/1 34/89/1 35/91/1
f 35/91/1 34/89/1 10/92/1
f 35/91/1 10/92/1 8/93/1
f 36/90/1 7/94/1 37/88/1
f 37/88/1 7/94/1 16/95/1
f 15/85/1 21/96/1 42/83/1
f 25/97/2 32/98/2 41/99/2
f 41/99/2 32/98/2 34/100/2
f 27/101/6 25/102/6 44/103/6
f 44/103/6 25/102/6 41/104/6
f 18/105/3 26/106/3 19/107/3
f 19/107/3 26/106/3 43/108/3
f 3/109/6 4/110/6 39/111/6
f 39/111/6 4/110/6 17/112/6
f 14/113/3 28/114/3 21/115/3
f 21/115/3 28/114/3 42/116/3
f 28/117/7 24/118/7 42/119/7
f 42/119/7 24/118/7 40/120/7
f 24/121/6 22/122/6 40/123/6
f 40/123/6 22/122/6 20/124/6
f 23/125/7 1/126/7 27/127/7
f 27/127/7 1/126/7 3/128/7
f 27/127/7 3/128/7 26/129/7
f 26/129/7 3/128/7 39/130/7
f 26/129/7 39/130/7 43/131/7
f 43/131/7 39/130/7 44/132/7
f 44/132/7 39/130/7 23/125/7
f 44/132/7 23/125/7 27/127/7
