# WaveFront *.obj file (generated by Autodesk ATF)

mtllib 73fe84a1-780b-4257-a971-1c6a82a562fa.mtl

g Body1

v 0.000000 142.000000 9.091451
v -4.000000 142.000000 9.091451
v -4.000000 142.000000 13.091451
v 0.000000 142.000000 13.091451
v 0.000000 142.000000 33.091451
v -4.000000 142.000000 33.091451
v -4.000000 142.000000 37.091451
v 0.000000 142.000000 37.091451
v 0.000000 142.000000 57.091452
v -4.000000 142.000000 57.091452
v -4.000000 142.000000 61.091452
v 0.000000 142.000000 61.091452
v 0.000000 142.000000 81.091452
v -46.000001 142.000000 81.091452
v -46.000001 142.000000 -10.882381
v -50.000001 142.000000 -10.882381
v -50.000001 142.000000 -10.908549
v 0.000000 142.000000 -10.908549
v -50.000001 146.000002 85.091452
v 0.000000 146.000002 85.091452
v 0.000000 146.000002 -14.908548
v -50.000001 146.000002 -14.908548
v -4.000000 0.000000 13.091451
v 0.000000 0.000000 13.091451
v -4.000000 0.000000 9.091451
v 0.000000 0.000000 9.091451
v -46.000001 0.000000 -10.882381
v -50.000001 0.000000 -10.882381
v -46.000001 0.000000 81.091452
v 0.000000 0.000000 81.091452
v -4.000000 0.000000 61.091452
v 0.000000 0.000000 61.091452
v -4.000000 0.000000 57.091452
v 0.000000 0.000000 57.091452
v 0.000000 0.000000 -10.908549
v -50.000001 0.000000 -10.908549
v 0.000000 0.000000 37.091451
v -4.000000 0.000000 37.091451
v -4.000000 0.000000 33.091451
v 0.000000 0.000000 33.091451
v -50.000001 -4.000000 85.091452
v -50.000001 -4.000000 -14.908548
v 0.000000 -4.000000 85.091452
v 0.000000 -4.000000 -14.908548
vt 0.000000 7.600000 0.000000
vt 0.400000 7.600000 0.000000
vt 0.000000 9.600000 0.000000
vt 4.600000 9.597383 0.000000
vt 5.000000 9.600000 0.000000
vt 5.000000 9.597383 0.000000
vt 0.400000 7.200000 0.000000
vt 0.400000 5.200000 0.000000
vt 0.400000 4.800000 0.000000
vt 0.000000 7.200000 0.000000
vt 0.000000 5.200000 0.000000
vt 0.000000 4.800000 0.000000
vt 0.400000 2.800000 0.000000
vt 4.600000 0.400000 0.000000
vt 0.000000 2.800000 0.000000
vt 0.400000 2.400000 0.000000
vt 0.000000 0.400000 0.000000
vt 0.000000 2.400000 0.000000
vt 0.000000 0.000000 0.000000
vt 5.000000 0.000000 0.000000
vt 0.000000 10.000000 0.000000
vt 5.000000 10.000000 0.000000
vt 0.000000 0.000000 0.000000
vt 0.400000 0.000000 0.000000
vt 0.000000 14.200000 0.000000
vt 0.400000 14.200000 0.000000
vt 0.000000 0.000000 0.000000
vt 0.400000 0.000000 0.000000
vt 0.000000 14.200000 0.000000
vt 0.400000 14.200000 0.000000
vt 0.000000 0.000000 0.000000
vt 0.400000 0.000000 0.000000
vt 0.000000 14.200000 0.000000
vt 0.400000 14.200000 0.000000
vt 0.000000 0.000000 0.000000
vt 0.400000 0.000000 0.000000
vt 0.000000 14.200000 0.000000
vt 0.400000 14.200000 0.000000
vt 0.000000 0.000000 0.000000
vt 9.197383 0.000000 0.000000
vt 0.000000 14.200000 0.000000
vt 9.197383 14.200000 0.000000
vt 0.000000 0.000000 0.000000
vt 4.600000 0.000000 0.000000
vt 0.000000 14.200000 0.000000
vt 4.600000 14.200000 0.000000
vt 0.000000 0.000000 0.000000
vt 0.400000 0.000000 0.000000
vt 0.000000 14.200000 0.000000
vt 0.400000 14.200000 0.000000
vt 0.000000 0.000000 0.000000
vt 0.400000 0.000000 0.000000
vt 0.000000 14.200000 0.000000
vt 0.400000 14.200000 0.000000
vt -0.000000 0.000000 0.000000
vt 0.400000 0.000000 0.000000
vt -0.000000 14.200000 0.000000
vt 0.400000 14.200000 0.000000
vt 5.000000 7.600000 0.000000
vt 5.000000 9.600000 0.000000
vt 4.600000 7.600000 0.000000
vt 0.400000 9.597383 0.000000
vt 4.600000 7.200000 0.000000
vt 4.600000 5.200000 0.000000
vt 5.000000 5.200000 0.000000
vt 0.000000 9.600000 0.000000
vt 0.000000 9.597383 0.000000
vt 4.600000 4.800000 0.000000
vt 0.400000 0.400000 0.000000
vt 4.600000 2.800000 0.000000
vt 4.600000 2.400000 0.000000
vt 5.000000 0.400000 0.000000
vt 5.000000 2.400000 0.000000
vt 5.000000 2.800000 0.000000
vt 5.000000 4.800000 0.000000
vt 5.000000 7.200000 0.000000
vt 0.000000 0.000000 0.000000
vt 5.000000 0.000000 0.000000
vt 0.000000 14.200000 0.000000
vt 5.000000 14.200000 0.000000
vt 0.400000 9.597383 0.000000
vt 0.000000 0.000000 0.000000
vt 14.600000 9.597383 0.000000
vt 15.000000 0.000000 0.000000
vt 15.000000 10.000000 0.000000
vt 0.000000 10.000000 0.000000
vt 0.400000 9.600000 0.000000
vt 14.600000 9.600000 0.000000
vt -0.000000 0.000000 0.000000
vt 5.000000 0.000000 0.000000
vt 0.000000 10.000000 0.000000
vt 5.000000 10.000000 0.000000
vt 2.500000 14.800000 0.000000
vt -2.500000 14.800000 0.000000
vt 2.500000 -0.200000 0.000000
vt -2.500000 -0.200000 0.000000
vt -2.500000 -0.200000 0.000000
vt 2.500000 -0.200000 0.000000
vt -2.500000 14.800000 0.000000
vt 2.500000 14.800000 0.000000
vt 2.400000 0.000000 0.000000
vt 2.800000 0.000000 0.000000
vt 2.400000 14.200000 0.000000
vt 2.800000 14.200000 0.000000
vt 5.200000 14.600000 0.000000
vt 4.800000 14.200000 0.000000
vt 5.200000 -0.400000 0.000000
vt 4.800000 0.000000 0.000000
vt 0.400000 0.000000 0.000000
vt -0.000000 0.000000 0.000000
vt -0.000000 14.200000 0.000000
vt 0.400000 14.200000 0.000000
vt -4.800000 -0.400000 0.000000
vt -4.400000 14.200000 0.000000
vt -4.800000 14.600000 0.000000
vt -2.400000 14.200000 0.000000
vt -2.000000 14.200000 0.000000
vt -2.000000 0.000000 0.000000
vt -2.400000 0.000000 0.000000
vt -4.400000 0.000000 0.000000
vt 0.000000 0.000000 0.000000
vt 0.400000 0.000000 0.000000
vt 0.000000 14.200000 0.000000
vt 0.400000 14.200000 0.000000
vt 0.000000 0.000000 0.000000
vt 0.400000 0.000000 0.000000
vt 0.000000 14.200000 0.000000
vt 0.400000 14.200000 0.000000
vt -0.000000 0.000000 0.000000
vt 0.400000 0.000000 0.000000
vt -0.000000 14.200000 0.000000
vt 0.400000 14.200000 0.000000
vn 0.000000 -0.100000 0.000000
vn 0.000000 -0.100000 0.000000
vn 0.000000 -0.100000 0.000000
vn 0.000000 -0.100000 0.000000
vn 0.000000 -0.100000 0.000000
vn 0.000000 -0.100000 0.000000
vn 0.000000 -0.100000 0.000000
vn 0.000000 -0.100000 0.000000
vn 0.000000 -0.100000 0.000000
vn 0.000000 -0.100000 0.000000
vn 0.000000 -0.100000 0.000000
vn 0.000000 -0.100000 0.000000
vn 0.000000 -0.100000 0.000000
vn 0.000000 -0.100000 0.000000
vn 0.000000 -0.100000 0.000000
vn 0.000000 -0.100000 0.000000
vn 0.000000 -0.100000 0.000000
vn 0.000000 -0.100000 0.000000
vn 0.000000 0.100000 0.000000
vn 0.000000 0.100000 0.000000
vn 0.000000 0.100000 0.000000
vn 0.000000 0.100000 0.000000
vn 0.000000 0.000000 0.100000
vn 0.000000 0.000000 0.100000
vn 0.000000 0.000000 0.100000
vn 0.000000 0.000000 0.100000
vn -0.100000 0.000000 0.000000
vn -0.100000 0.000000 0.000000
vn -0.100000 0.000000 0.000000
vn -0.100000 0.000000 0.000000
vn 0.000000 0.000000 -0.100000
vn 0.000000 0.000000 -0.100000
vn 0.000000 0.000000 -0.100000
vn 0.000000 0.000000 -0.100000
vn 0.000000 0.000000 -0.100000
vn 0.000000 0.000000 -0.100000
vn 0.000000 0.000000 -0.100000
vn 0.000000 0.000000 -0.100000
vn 0.100000 0.000000 0.000000
vn 0.100000 0.000000 0.000000
vn 0.100000 0.000000 0.000000
vn 0.100000 0.000000 0.000000
vn 0.000000 0.000000 -0.100000
vn 0.000000 0.000000 -0.100000
vn 0.000000 0.000000 -0.100000
vn 0.000000 0.000000 -0.100000
vn 0.000000 0.000000 0.100000
vn 0.000000 0.000000 0.100000
vn 0.000000 0.000000 0.100000
vn 0.000000 0.000000 0.100000
vn -0.100000 0.000000 0.000000
vn -0.100000 0.000000 0.000000
vn -0.100000 0.000000 0.000000
vn -0.100000 0.000000 0.000000
vn 0.000000 0.000000 -0.100000
vn 0.000000 0.000000 -0.100000
vn 0.000000 0.000000 -0.100000
vn 0.000000 0.000000 -0.100000
vn 0.000000 0.100000 0.000000
vn 0.000000 0.100000 0.000000
vn 0.000000 0.100000 0.000000
vn 0.000000 0.100000 0.000000
vn 0.000000 0.100000 0.000000
vn 0.000000 0.100000 0.000000
vn 0.000000 0.100000 0.000000
vn 0.000000 0.100000 0.000000
vn 0.000000 0.100000 0.000000
vn 0.000000 0.100000 0.000000
vn 0.000000 0.100000 0.000000
vn 0.000000 0.100000 0.000000
vn 0.000000 0.100000 0.000000
vn 0.000000 0.100000 0.000000
vn 0.000000 0.100000 0.000000
vn 0.000000 0.100000 0.000000
vn 0.000000 0.100000 0.000000
vn 0.000000 0.100000 0.000000
vn 0.000000 0.000000 0.100000
vn 0.000000 0.000000 0.100000
vn 0.000000 0.000000 0.100000
vn 0.000000 0.000000 0.100000
vn -0.100000 0.000000 0.000000
vn -0.100000 0.000000 0.000000
vn -0.100000 0.000000 0.000000
vn -0.100000 0.000000 0.000000
vn -0.100000 0.000000 0.000000
vn -0.100000 0.000000 0.000000
vn -0.100000 0.000000 0.000000
vn -0.100000 0.000000 0.000000
vn 0.000000 -0.100000 0.000000
vn 0.000000 -0.100000 0.000000
vn 0.000000 -0.100000 0.000000
vn 0.000000 -0.100000 0.000000
vn 0.000000 0.000000 0.100000
vn 0.000000 0.000000 0.100000
vn 0.000000 0.000000 0.100000
vn 0.000000 0.000000 0.100000
vn 0.000000 0.000000 -0.100000
vn 0.000000 0.000000 -0.100000
vn 0.000000 0.000000 -0.100000
vn 0.000000 0.000000 -0.100000
vn 0.100000 0.000000 0.000000
vn 0.100000 0.000000 0.000000
vn 0.100000 0.000000 0.000000
vn 0.100000 0.000000 0.000000
vn 0.100000 0.000000 0.000000
vn 0.100000 0.000000 0.000000
vn 0.100000 0.000000 0.000000
vn 0.100000 0.000000 0.000000
vn 0.100000 0.000000 0.000000
vn 0.100000 0.000000 0.000000
vn 0.100000 0.000000 0.000000
vn 0.100000 0.000000 0.000000
vn 0.100000 0.000000 0.000000
vn 0.100000 0.000000 0.000000
vn 0.100000 0.000000 0.000000
vn 0.100000 0.000000 0.000000
vn 0.100000 0.000000 0.000000
vn 0.100000 0.000000 0.000000
vn 0.100000 0.000000 0.000000
vn 0.100000 0.000000 0.000000
vn 0.000000 0.000000 0.100000
vn 0.000000 0.000000 0.100000
vn 0.000000 0.000000 0.100000
vn 0.000000 0.000000 0.100000
vn -0.100000 0.000000 0.000000
vn -0.100000 0.000000 0.000000
vn -0.100000 0.000000 0.000000
vn -0.100000 0.000000 0.000000
vn 0.000000 0.000000 -0.100000
vn 0.000000 0.000000 -0.100000
vn 0.000000 0.000000 -0.100000
vn 0.000000 0.000000 -0.100000
usemtl Mahogany
f 1/1/1 2/2/2 18/3/3
f 18/3/3 2/2/2 15/4/4
f 18/3/3 15/4/4 17/5/5
f 17/5/5 15/4/4 16/6/6
f 2/2/2 3/7/7 15/4/4
f 15/4/4 3/7/7 6/8/8
f 15/4/4 6/8/8 7/9/9
f 3/7/7 4/10/10 6/8/8
f 6/8/8 4/10/10 5/11/11
f 8/12/12 10/13/13 7/9/9
f 7/9/9 10/13/13 14/14/14
f 7/9/9 14/14/14 15/4/4
f 8/12/12 9/15/15 10/13/13
f 10/13/13 11/16/16 14/14/14
f 14/14/14 11/16/16 13/17/17
f 13/17/17 11/16/16 12/18/18
f 19/19/19 20/20/20 22/21/21
f 22/21/21 20/20/20 21/22/22
f 23/23/23 24/24/24 3/25/25
f 3/25/25 24/24/24 4/26/26
f 25/27/27 23/28/28 2/29/29
f 2/29/29 23/28/28 3/30/30
f 26/31/31 25/32/32 1/33/33
f 1/33/33 25/32/32 2/34/34
f 27/35/35 28/36/36 15/37/37
f 15/37/37 28/36/36 16/38/38
f 29/39/39 27/40/40 14/41/41
f 14/41/41 27/40/40 15/42/42
f 30/43/43 29/44/44 13/45/45
f 13/45/45 29/44/44 14/46/46
f 31/47/47 32/48/48 11/49/49
f 11/49/49 32/48/48 12/50/50
f 33/51/51 31/52/52 10/53/53
f 10/53/53 31/52/52 11/54/54
f 34/55/55 33/56/56 9/57/57
f 9/57/57 33/56/56 10/58/58
f 26/59/59 35/60/60 25/61/61
f 25/61/61 35/60/60 27/62/62
f 25/61/61 27/62/62 23/63/63
f 23/63/63 27/62/62 39/64/64
f 23/63/63 39/64/64 40/65/65
f 35/60/60 36/66/66 27/62/62
f 27/62/62 36/66/66 28/67/67
f 39/64/64 27/62/62 38/68/68
f 38/68/68 27/62/62 29/69/69
f 38/68/68 29/69/69 33/70/70
f 33/70/70 29/69/69 31/71/71
f 31/71/71 29/69/69 30/72/72
f 31/71/71 30/72/72 32/73/73
f 33/70/70 34/74/74 38/68/68
f 38/68/68 34/74/74 37/75/75
f 40/65/65 24/76/76 23/63/63
f 36/77/77 35/78/78 17/79/79
f 17/79/79 35/78/78 18/80/80
f 28/81/81 41/82/82 16/83/83
f 16/83/83 41/82/82 19/84/84
f 16/83/83 19/84/84 22/85/85
f 41/82/82 28/81/81 42/86/86
f 42/86/86 28/81/81 36/87/87
f 42/86/86 36/87/87 17/88/88
f 42/86/86 17/88/88 22/85/85
f 22/85/85 17/88/88 16/83/83
f 43/89/89 41/90/90 44/91/91
f 44/91/91 41/90/90 42/92/92
f 20/93/93 19/94/94 43/95/95
f 43/95/95 19/94/94 41/96/96
f 44/97/97 42/98/98 21/99/99
f 21/99/99 42/98/98 22/100/100
f 24/101/101 26/102/102 4/103/103
f 4/103/103 26/102/102 1/104/104
f 4/103/103 1/104/104 21/105/105
f 21/105/105 1/104/104 18/106/106
f 21/105/105 18/106/106 44/107/107
f 44/107/107 18/106/106 35/108/108
f 44/107/107 35/108/108 26/102/102
f 26/102/102 24/101/101 44/107/107
f 44/107/107 24/101/101 40/109/109
f 44/107/107 40/109/109 37/110/110
f 37/110/110 40/109/109 8/111/111
f 8/111/111 40/109/109 5/112/112
f 8/111/111 5/112/112 21/105/105
f 21/105/105 5/112/112 4/103/103
f 43/113/113 13/114/114 20/115/115
f 20/115/115 13/114/114 12/116/116
f 20/115/115 12/116/116 9/117/117
f 9/117/117 12/116/116 34/118/118
f 34/118/118 12/116/116 32/119/119
f 34/118/118 32/119/119 43/113/113
f 43/113/113 32/119/119 30/120/120
f 43/113/113 30/120/120 13/114/114
f 34/118/118 43/113/113 37/110/110
f 37/110/110 43/113/113 44/107/107
f 21/105/105 20/115/115 8/111/111
f 8/111/111 20/115/115 9/117/117
f 38/121/121 37/122/122 7/123/123
f 7/123/123 37/122/122 8/124/124
f 39/125/125 38/126/126 6/127/127
f 6/127/127 38/126/126 7/128/128
f 40/129/129 39/130/130 5/131/131
f 5/131/131 39/130/130 6/132/132

# 44 vertices
# 132 texture params
# 132 normals
# 100 facets

# 1 groups
